<svg version="1.2" baseProfile="tiny-ps" xmlns="http://www.w3.org/2000/svg" viewBox="0 0 1280 222" width="1280" height="222">
	<title>logo-svg</title>
	<style>
		tspan { white-space:pre }
		.shp0 { fill: #ffffff } 
		.shp1 { fill: #ff322e } 
	</style>
	<path id="Layer" fill-rule="evenodd" class="shp0" d="M276.21 175.96L323.07 65.59C334.36 66.98 346.24 67.88 358.73 68.29L287.6 219.53L265.43 219.53L193.69 68.29C205.97 68.09 218.15 67.19 230.23 65.59L276.21 175.96ZM523.16 154.25L406.49 154.25C407.49 166.53 412.58 176.01 421.77 182.69C431.05 189.29 442.63 192.58 456.5 192.58C474.07 192.58 488.8 187.44 500.69 177.15C506.18 185.13 512.22 192.22 518.8 198.41C500.03 213.79 478.37 221.43 453.81 221.33C429.65 221.33 410.19 214.09 395.41 199.62C380.73 185.05 373.39 166.23 373.39 143.17C373.39 120.7 380.58 102.23 394.96 87.76C409.44 73.17 427.71 65.88 449.78 65.88C472.24 65.88 490.31 72.82 503.98 86.69C517.76 100.57 524.65 118.79 524.65 141.37C524.65 146.05 524.15 150.35 523.16 154.25ZM406.19 130.28L493.04 130.28C492.44 120.29 488.35 112 480.77 105.42C473.18 98.73 462.85 95.38 449.78 95.38C436.3 95.38 425.66 99.03 417.88 106.32C410.08 113.5 406.19 121.49 406.19 130.28ZM557.28 219.53L557.28 68.29C568.18 67.69 578.91 66.79 589.49 65.59L589.49 89.84C593.18 83.05 599.47 77.36 608.36 72.77C617.25 68.17 626.48 65.88 636.06 65.88C638.95 65.88 642.45 66.18 646.55 66.78L639.81 97.77C638.01 97.38 635.16 97.18 631.28 97.18C619.39 97.18 609.65 100.77 602.06 107.96C594.48 115.04 590.69 124.23 590.69 135.52L590.69 219.53L557.28 219.53ZM660.33 67.08L678.14 67.08L678.14 30.55C690.22 30.55 700.95 30.35 710.35 29.95L710.35 67.08L753.02 67.08C752.62 73.18 752.42 82.51 752.42 95.1L710.35 96L710.35 169.52C710.35 184.19 715.98 191.58 727.25 191.68C734.64 191.68 743.23 189.73 753.02 185.84C755.02 195.42 757.77 204.4 761.26 212.78C750.17 218.48 735.95 221.33 718.59 221.33C704.9 221.33 694.71 217.89 688.02 211.01C681.43 204.01 678.14 193.08 678.14 178.21L678.14 96.28L660.33 96.59L660.33 67.08ZM926.59 154.25L809.92 154.25C810.93 166.53 816.02 176.01 825.19 182.69C834.49 189.29 846.07 192.58 859.95 192.58C877.52 192.58 892.24 187.44 904.12 177.15C909.61 185.13 915.65 192.22 922.25 198.41C903.48 213.79 881.82 221.43 857.25 221.33C833.08 221.33 813.61 214.09 798.84 199.62C784.17 185.05 776.84 166.23 776.84 143.17C776.84 120.7 784.02 102.23 798.39 87.76C812.86 73.17 831.14 65.88 853.2 65.88C875.67 65.88 893.74 72.82 907.41 86.69C921.19 100.57 928.08 118.79 928.08 141.37C928.08 146.05 927.58 150.35 926.59 154.25ZM809.63 130.28L896.49 130.28C895.89 120.29 891.79 112 884.2 105.42C876.62 98.73 866.29 95.38 853.2 95.38C839.72 95.38 829.09 99.03 821.31 106.32C813.52 113.5 809.63 121.49 809.63 130.28ZM941.27 218.33L998.62 141.96L943.07 68.29C954.54 67.69 967.32 66.79 981.4 65.59L1018.23 115.3L1054.62 65.59C1068.5 66.79 1081.28 67.69 1092.96 68.29L1037.55 142.27L1094.9 218.33C1082.63 218.33 1069.51 219.23 1055.52 221.02L1017.94 168.91L979.89 221.02C966.61 219.23 953.74 218.33 941.27 218.33Z" />
	<path id="Layer" class="shp1" d="M1135.34 0C1141.44 0 1146.68 2.15 1151.07 6.44C1155.45 10.73 1157.65 15.83 1157.65 21.71C1157.65 27.6 1155.45 32.74 1151.07 37.13C1146.68 41.52 1141.44 43.71 1135.34 43.71C1129.06 43.71 1123.72 41.72 1119.31 37.72C1115.02 33.63 1112.87 28.45 1112.87 22.16C1112.87 15.77 1115.02 10.48 1119.31 6.28C1123.72 2.09 1129.06 0 1135.34 0ZM1118.13 67.08L1150.92 67.08L1150.92 219.53L1118.13 219.53L1118.13 67.08ZM1179.08 67.08L1196.89 67.08L1196.89 30.55C1208.96 30.55 1219.7 30.35 1229.09 29.95L1229.09 67.08L1271.76 67.08C1271.36 73.18 1271.17 82.51 1271.17 95.1L1229.09 96L1229.09 169.52C1229.09 184.19 1234.73 191.58 1246.02 191.68C1253.41 191.68 1261.99 189.73 1271.76 185.84C1273.76 195.42 1276.51 204.4 1280 212.78C1268.92 218.48 1254.69 221.33 1237.33 221.33C1223.64 221.33 1213.46 217.89 1206.78 211.01C1200.18 204.01 1196.89 193.08 1196.89 178.21L1196.89 96.28L1179.08 96.59L1179.08 67.08Z" />
	<path id="Layer" class="shp1" d="M23.51 213.4C10.51 213.4 0 202.89 0 189.88C0 176.88 10.51 166.37 23.51 166.37C36.52 166.37 47.03 176.88 47.03 189.88C47.03 202.89 36.52 213.4 23.51 213.4Z" />
	<path id="Layer" class="shp1" d="M85.87 147.97C65.53 147.97 49.07 131.51 49.07 111.17C49.07 90.82 65.53 74.36 85.87 74.36C106.22 74.36 122.68 90.82 122.68 111.17C122.68 131.51 106.22 147.97 85.87 147.97Z" />
</svg>