<svg xmlns="http://www.w3.org/2000/svg" viewBox="0 0 1279 278" width="1279" height="278">
	<style>
		tspan { white-space:pre }
	</style>
	<path fill="#161721" d="M71.84 275L0.35 77.84L38.31 77.84L93.96 240.73L151.08 77.84L188.67 77.84L114.59 275L71.84 275ZM291.12 277.21Q259.05 277.21 240.63 268Q222.57 258.79 214.46 237.04Q206.72 215.3 206.72 176.24Q206.72 136.44 214.46 114.69Q222.57 92.95 240.63 84.11Q258.69 75.26 290.75 75.26Q318.75 75.26 335.34 81.16Q351.92 87.05 359.66 101.43Q367.4 115.8 367.4 141.23Q367.4 167.39 352.29 179.18Q337.18 190.61 308.8 190.61L243.58 190.61Q243.94 213.09 248.37 225.62Q253.16 237.78 265.32 243.31Q277.48 248.83 300.33 248.83L361.87 248.83L361.87 270.95Q341.6 273.89 326.12 275.74Q310.65 277.21 291.12 277.21ZM243.21 167.39L305.49 167.39Q320.6 167.39 327.23 161.86Q334.23 155.97 334.23 141.6Q334.23 119.48 324.28 111.01Q314.7 102.53 290.75 102.53Q271.95 102.53 261.63 108.06Q251.68 113.59 247.26 127.59Q243.21 141.23 243.21 167.39ZM412.36 275L412.36 77.84L440.74 77.84L449.21 111.01Q463.21 94.06 478.69 84.84Q494.17 75.26 513.33 75.26Q523.28 75.26 531.02 77.47L531.02 115.43Q519.23 113.59 508.91 113.59Q490.85 113.59 477.22 120.22Q463.58 126.49 449.21 140.49L449.21 275L412.36 275ZM637.53 275Q606.94 275 592.93 259.89Q578.93 244.78 579.67 209.4L581.14 108.06L549.82 108.06L549.82 84.11L581.88 77.84L587.41 22.56L616.52 22.56L616.52 77.84L669.96 77.84L669.96 108.06L616.52 108.06L616.52 209.03Q616.52 228.93 623.89 236.67Q631.63 244.41 643.05 245.52L667.38 247.73L667.38 275L637.53 275ZM784.93 277.21Q752.87 277.21 734.45 268Q716.39 258.79 708.28 237.04Q700.54 215.3 700.54 176.24Q700.54 136.44 708.28 114.69Q716.39 92.95 734.45 84.11Q752.5 75.26 784.57 75.26Q812.57 75.26 829.16 81.16Q845.74 87.05 853.48 101.43Q861.22 115.8 861.22 141.23Q861.22 167.39 846.11 179.18Q831 190.61 802.62 190.61L737.4 190.61Q737.76 213.09 742.19 225.62Q746.98 237.78 759.14 243.31Q771.3 248.83 794.15 248.83L855.69 248.83L855.69 270.95Q835.42 273.89 819.94 275.74Q804.47 277.21 784.93 277.21ZM737.03 167.39L799.31 167.39Q814.42 167.39 821.05 161.86Q828.05 155.97 828.05 141.6Q828.05 119.48 818.1 111.01Q808.52 102.53 784.57 102.53Q765.77 102.53 755.45 108.06Q745.5 113.59 741.08 127.59Q737.03 141.23 737.03 167.39ZM1057.27 77.84L988.73 178.45L1057.27 275L1019.68 275L966.98 200.93L917.23 275L879.64 275L948.19 174.39L879.64 77.84L917.23 77.84L969.93 152.28L1019.68 78.21L1057.27 77.84Z" />
	<path fill="#ff322e" d="M1094.86 44.67Q1091.91 44.67 1090.07 43.2Q1088.23 41.36 1088.23 38.41L1088.23 7.45Q1088.23 0.82 1094.86 0.82L1122.13 0.82Q1125.08 0.82 1126.55 2.66Q1128.03 4.5 1128.03 7.45L1128.03 38.41Q1128.03 44.67 1122.13 44.67L1094.86 44.67ZM1089.7 275L1089.7 77.84L1126.55 77.84L1126.55 275L1089.7 275ZM1246.32 275Q1215.74 275 1201.73 259.89Q1187.73 244.78 1188.47 209.4L1189.94 108.06L1158.62 108.06L1158.62 84.11L1190.68 77.84L1196.21 22.56L1225.32 22.56L1225.32 77.84L1278.75 77.84L1278.75 108.06L1225.32 108.06L1225.32 209.03Q1225.32 228.93 1232.69 236.67Q1240.43 244.41 1251.85 245.52L1276.17 247.73L1276.17 275L1246.32 275Z" />
</svg>